<?xml version="1.0" encoding="UTF-8"?><svg xmlns="http://www.w3.org/2000/svg" viewBox="0 0 3200 3136.17"><g id="a"/><g id="b"><g id="c"><g><path d="M1951.38,670.57c127.02,0,230.36-103.35,230.36-230.36s-103.35-230.36-230.36-230.36-230.36,103.35-230.36,230.36,103.35,230.36,230.36,230.36Zm0-385.14c85.33,0,154.77,69.44,154.77,154.77s-69.44,154.77-154.77,154.77-154.77-69.44-154.77-154.77,69.44-154.77,154.77-154.77Z"/><path d="M294.19,1190.01l-65.11,65.11c-14.76,14.76-14.76,38.68,0,53.44,7.38,7.38,17.03,11.07,26.72,11.07s19.34-3.69,26.72-11.07l65.11-65.11c14.76-14.76,14.76-38.68,0-53.44-14.76-14.76-38.68-14.76-53.44,0Z"/><path d="M509.55,1190.01l-65.16,65.11c-14.76,14.76-14.76,38.68,0,53.44,7.38,7.38,17.03,11.07,26.72,11.07s19.34-3.69,26.72-11.07l65.16-65.11c14.76-14.76,14.76-38.68,0-53.44-14.71-14.71-38.63-14.81-53.44,0Z"/><path d="M724.85,1190.01l-65.11,65.11c-14.76,14.76-14.76,38.68,0,53.44,7.38,7.38,17.03,11.07,26.72,11.07s19.34-3.69,26.72-11.07l65.11-65.11c14.76-14.76,14.76-38.68,0-53.44-14.76-14.76-38.68-14.76-53.44,0Z"/><path d="M940.21,1190.01l-65.11,65.11c-14.76,14.76-14.76,38.68,0,53.44,7.38,7.38,17.03,11.07,26.72,11.07s19.34-3.69,26.72-11.07l65.11-65.11c14.76-14.76,14.76-38.68,0-53.44-14.76-14.76-38.68-14.76-53.44,0Z"/><path d="M1155.56,1190.01l-65.16,65.11c-14.76,14.76-14.76,38.68,0,53.44,7.38,7.38,17.03,11.07,26.72,11.07s19.34-3.69,26.72-11.07l65.16-65.11c14.76-14.76,14.76-38.68,0-53.44-14.76-14.71-38.68-14.81-53.44,0Z"/><path d="M1370.87,1190.01l-65.11,65.11c-14.76,14.76-14.76,38.68,0,53.44,7.38,7.38,17.03,11.07,26.72,11.07s19.34-3.69,26.72-11.07l65.11-65.11c14.76-14.76,14.76-38.68,0-53.44-14.76-14.76-38.68-14.76-53.44,0Z"/><path d="M294.19,1435.38l-65.11,65.16c-14.76,14.76-14.76,38.68,0,53.44,7.38,7.38,17.08,11.07,26.72,11.07s19.34-3.69,26.72-11.07l65.11-65.16c14.76-14.76,14.76-38.68,0-53.44s-38.73-14.71-53.44,0Z"/><path d="M509.55,1435.38l-65.16,65.16c-14.76,14.76-14.76,38.68,0,53.44,7.38,7.38,17.03,11.07,26.72,11.07s19.34-3.69,26.72-11.07l65.16-65.16c14.76-14.76,14.76-38.68,0-53.44-14.76-14.76-38.68-14.76-53.44,0Z"/><path d="M724.85,1435.38l-65.11,65.16c-14.76,14.76-14.76,38.68,0,53.44,7.38,7.38,17.08,11.07,26.72,11.07s19.34-3.69,26.72-11.07l65.11-65.16c14.76-14.76,14.76-38.68,0-53.44-14.81-14.81-38.73-14.71-53.44,0Z"/><path d="M940.21,1435.38l-65.11,65.16c-14.76,14.76-14.76,38.68,0,53.44,7.38,7.38,17.08,11.07,26.72,11.07s19.34-3.69,26.72-11.07l65.11-65.16c14.76-14.76,14.76-38.68,0-53.44s-38.73-14.71-53.44,0Z"/><path d="M1155.56,1435.38l-65.16,65.16c-14.76,14.76-14.76,38.68,0,53.44,7.38,7.38,17.03,11.07,26.72,11.07s19.34-3.69,26.72-11.07l65.16-65.16c14.76-14.76,14.76-38.68,0-53.44-14.76-14.76-38.68-14.76-53.44,0Z"/><path d="M1370.87,1435.38l-65.11,65.16c-14.76,14.76-14.76,38.68,0,53.44,7.38,7.38,17.08,11.07,26.72,11.07s19.34-3.69,26.72-11.07l65.11-65.16c14.76-14.76,14.76-38.68,0-53.44-14.76-14.81-38.68-14.71-53.44,0Z"/><path d="M294.19,2143.55l-65.11,65.11c-14.76,14.76-14.76,38.68,0,53.44,7.38,7.38,17.03,11.07,26.72,11.07s19.34-3.69,26.72-11.07l65.11-65.11c14.76-14.76,14.76-38.68,0-53.44-14.76-14.76-38.68-14.76-53.44,0Z"/><path d="M509.55,2143.55l-65.16,65.11c-14.76,14.76-14.76,38.68,0,53.44,7.38,7.38,17.03,11.07,26.72,11.07s19.34-3.69,26.72-11.07l65.16-65.11c14.76-14.76,14.76-38.68,0-53.44-14.71-14.71-38.63-14.81-53.44,0Z"/><path d="M724.85,2143.55l-65.11,65.11c-14.76,14.76-14.76,38.68,0,53.44,7.38,7.38,17.03,11.07,26.72,11.07s19.34-3.69,26.72-11.07l65.11-65.11c14.76-14.76,14.76-38.68,0-53.44-14.76-14.76-38.68-14.76-53.44,0Z"/><path d="M940.21,2143.55l-65.11,65.11c-14.76,14.76-14.76,38.68,0,53.44,7.38,7.38,17.03,11.07,26.72,11.07s19.34-3.69,26.72-11.07l65.11-65.11c14.76-14.76,14.76-38.68,0-53.44-14.76-14.76-38.68-14.76-53.44,0Z"/><path d="M1155.56,2143.55l-65.16,65.11c-14.76,14.76-14.76,38.68,0,53.44,7.38,7.38,17.03,11.07,26.72,11.07s19.34-3.69,26.72-11.07l65.16-65.11c14.76-14.76,14.76-38.68,0-53.44-14.76-14.71-38.68-14.81-53.44,0Z"/><path d="M1370.87,2143.55l-65.11,65.11c-14.76,14.76-14.76,38.68,0,53.44,7.38,7.38,17.03,11.07,26.72,11.07s19.34-3.69,26.72-11.07l65.11-65.11c14.76-14.76,14.76-38.68,0-53.44-14.76-14.76-38.68-14.76-53.44,0Z"/><path d="M294.19,2388.97l-65.11,65.11c-14.76,14.76-14.76,38.68,0,53.44,7.38,7.38,17.03,11.07,26.72,11.07s19.34-3.69,26.72-11.07l65.11-65.11c14.76-14.76,14.76-38.68,0-53.44-14.76-14.76-38.68-14.76-53.44,0Z"/><path d="M509.55,2388.97l-65.16,65.11c-14.76,14.76-14.76,38.68,0,53.44,7.38,7.38,17.03,11.07,26.72,11.07s19.34-3.69,26.72-11.07l65.16-65.11c14.76-14.76,14.76-38.68,0-53.44-14.71-14.71-38.63-14.81-53.44,0Z"/><path d="M724.85,2388.97l-65.11,65.11c-14.76,14.76-14.76,38.68,0,53.44,7.38,7.38,17.03,11.07,26.72,11.07s19.34-3.69,26.72-11.07l65.11-65.11c14.76-14.76,14.76-38.68,0-53.44-14.76-14.76-38.68-14.76-53.44,0Z"/><path d="M940.21,2388.97l-65.11,65.11c-14.76,14.76-14.76,38.68,0,53.44,7.38,7.38,17.03,11.07,26.72,11.07s19.34-3.69,26.72-11.07l65.11-65.11c14.76-14.76,14.76-38.68,0-53.44-14.76-14.76-38.68-14.76-53.44,0Z"/><path d="M1155.56,2388.97l-65.16,65.11c-14.76,14.76-14.76,38.68,0,53.44,7.38,7.38,17.03,11.07,26.72,11.07s19.34-3.69,26.72-11.07l65.16-65.11c14.76-14.76,14.76-38.68,0-53.44-14.76-14.71-38.68-14.81-53.44,0Z"/><path d="M1370.87,2388.97l-65.11,65.11c-14.76,14.76-14.76,38.68,0,53.44,7.38,7.38,17.03,11.07,26.72,11.07s19.34-3.69,26.72-11.07l65.11-65.11c14.76-14.76,14.76-38.68,0-53.44s-38.68-14.76-53.44,0Z"/><path d="M255.81,366.09c9.69,0,19.34-3.69,26.72-11.07l65.11-65.16c14.76-14.76,14.76-38.68,0-53.44-14.81-14.81-38.73-14.71-53.44,0l-65.11,65.16c-14.76,14.76-14.76,38.68,0,53.44,7.38,7.38,17.08,11.07,26.72,11.07Z"/><path d="M471.11,366.09c9.69,0,19.34-3.69,26.72-11.07l65.16-65.16c14.76-14.76,14.76-38.68,0-53.44-14.76-14.76-38.68-14.76-53.44,0l-65.16,65.16c-14.76,14.76-14.76,38.68,0,53.44,7.38,7.38,17.03,11.07,26.72,11.07Z"/><path d="M686.47,366.09c9.69,0,19.34-3.69,26.72-11.07l65.11-65.16c14.76-14.76,14.76-38.68,0-53.44-14.81-14.81-38.73-14.71-53.44,0l-65.11,65.16c-14.76,14.76-14.76,38.68,0,53.44,7.38,7.38,17.08,11.07,26.72,11.07Z"/><path d="M901.82,366.09c9.69,0,19.34-3.69,26.72-11.07l65.11-65.16c14.76-14.76,14.76-38.68,0-53.44-14.81-14.81-38.73-14.71-53.44,0l-65.11,65.16c-14.76,14.76-14.76,38.68,0,53.44,7.38,7.38,17.08,11.07,26.72,11.07Z"/><path d="M1117.13,366.09c9.69,0,19.34-3.69,26.72-11.07l65.16-65.16c14.76-14.76,14.76-38.68,0-53.44s-38.68-14.76-53.44,0l-65.16,65.16c-14.76,14.76-14.76,38.68,0,53.44,7.38,7.38,17.03,11.07,26.72,11.07Z"/><path d="M1332.48,366.09c9.69,0,19.34-3.69,26.72-11.07l65.11-65.16c14.76-14.76,14.76-38.68,0-53.44-14.76-14.81-38.68-14.71-53.44,0l-65.11,65.16c-14.76,14.76-14.76,38.68,0,53.44,7.38,7.38,17.08,11.07,26.72,11.07Z"/><path d="M347.64,481.84c-14.76-14.76-38.68-14.76-53.44,0l-65.11,65.11c-14.76,14.76-14.76,38.68,0,53.44,7.38,7.38,17.03,11.07,26.72,11.07s19.34-3.69,26.72-11.07l65.11-65.11c14.76-14.76,14.76-38.68,0-53.44Z"/><path d="M471.11,611.47c9.65,0,19.34-3.69,26.72-11.07l65.16-65.11c14.76-14.76,14.76-38.68,0-53.44-14.71-14.71-38.63-14.81-53.44,0l-65.16,65.11c-14.76,14.76-14.76,38.68,0,53.44,7.38,7.38,17.03,11.07,26.72,11.07Z"/><path d="M686.47,611.47c9.69,0,19.34-3.69,26.72-11.07l65.11-65.11c14.76-14.76,14.76-38.68,0-53.44-14.76-14.76-38.68-14.76-53.44,0l-65.11,65.11c-14.76,14.76-14.76,38.68,0,53.44,7.38,7.38,17.03,11.07,26.72,11.07Z"/><path d="M901.82,611.47c9.69,0,19.34-3.69,26.72-11.07l65.11-65.11c14.76-14.76,14.76-38.68,0-53.44-14.76-14.76-38.68-14.76-53.44,0l-65.11,65.11c-14.76,14.76-14.76,38.68,0,53.44,7.38,7.38,17.03,11.07,26.72,11.07Z"/><path d="M1117.13,611.47c9.65,0,19.34-3.69,26.72-11.07l65.16-65.11c14.76-14.76,14.76-38.68,0-53.44-14.76-14.71-38.68-14.81-53.44,0l-65.16,65.11c-14.76,14.76-14.76,38.68,0,53.44,7.38,7.38,17.03,11.07,26.72,11.07Z"/><path d="M1332.48,611.47c9.69,0,19.34-3.69,26.72-11.07l65.11-65.11c14.76-14.76,14.76-38.68,0-53.44-14.76-14.76-38.68-14.76-53.44,0l-65.11,65.11c-14.76,14.76-14.76,38.68,0,53.44,7.38,7.38,17.03,11.07,26.72,11.07Z"/><path d="M1951.38,1624.11c127.02,0,230.36-103.35,230.36-230.36s-103.35-230.36-230.36-230.36-230.36,103.35-230.36,230.36,103.35,230.36,230.36,230.36Zm0-385.14c85.33,0,154.77,69.44,154.77,154.77s-69.44,154.77-154.77,154.77-154.77-69.44-154.77-154.77,69.44-154.77,154.77-154.77Z"/><path d="M2975.29,1838.78c-.79-.98-1.67-1.87-2.56-2.76-136-159.96-328.66-257.14-536.27-274.06v-483.82c0-68.75-55.95-124.7-124.75-124.7h-127.85v-116.58h127.9c68.85,0,124.85-56,124.85-124.85V124.85c0-68.85-56-124.85-124.85-124.85H124.85C56,0,0,56,0,124.85V712.01c0,68.85,56,124.85,124.85,124.85h127.85v116.58H124.75c-68.8,0-124.75,55.95-124.75,124.7v587.5c0,68.8,55.95,124.75,124.75,124.75h127.95v116.83H124.75c-68.8,0-124.75,55.95-124.75,124.75v586.96c0,69.05,55.95,125.25,124.75,125.25H1691.19c80.56,138.06,202.17,251.7,352.8,320.57,28.4,13.24,58.42,24.95,89.27,34.69,76.97,24.36,157.33,36.71,238.78,36.71,88.48,0,175.39-14.62,258.17-43.36,.16-.06,.31-.13,.47-.18,.02,0,.05,0,.07-.01,.03,0,.05-.03,.07-.04,41.03-14.09,81.82-32.1,121.19-53.65,1.23-.69,2.41-1.43,3.54-2.21,250.2-139.42,405.46-403.25,405.46-689.52,0-150.39-42.37-296.41-122.44-422.05-18.6-29.58-39.91-58.61-63.29-86.37Zm-272.83,1140.5c-20.36,10.61-41.05,19.98-61.96,28.44l-332.19-928.44h148.77l193.75,638.09c4.82,15.94,19.54,26.82,36.17,26.82h.3c16.73-.15,31.4-11.27,36.02-27.36l134.99-470.52c3.2-11.17,1.08-23.23-5.71-32.63-30.31-41.83-103.79-167.13-80.56-243.31,11.56-37.89,35.48-66.04,67.37-79.13,26.81-11.05,56.69-9.81,83.22,2.64,17.63,21.38,33.78,43.54,48.31,66.18,22.63,108.63-39.96,290.68-40.98,293.63l-227.51,725.58Zm-581.42,34.51c-10.22-3.88-20.57-7.52-30.49-11.85l-310.39-977.78h132.43l269.09,802.9-60.65,186.72Zm98.79-310.79l-227.51-678.84h18.4c20.87,0,37.8-16.93,37.8-37.8s-16.93-37.8-37.8-37.8h-230.02c132.07-195.36,352.9-314.52,591.34-314.52,175,0,341.08,64.43,470.27,178.19-10.71,2.22-21.39,4.83-31.69,9.06-53.2,21.9-92.62,67.03-110.93,127.02-33.02,108.37,49.21,246.55,81.05,294.34l-94.78,330.27-149.92-493.7h17.44c20.87,0,37.8-16.93,37.8-37.8s-16.93-37.8-37.8-37.8h-362.06c-20.87,0-37.8,16.93-37.8,37.8s16.93,37.8,37.8,37.8h36.6l98.34,274.86-106.54,348.9ZM75.59,712.01V124.85c0-27.17,22.1-49.26,49.26-49.26H2311.76c27.17,0,49.26,22.1,49.26,49.26V712.01c0,27.17-22.1,49.26-49.26,49.26H124.85c-27.17,0-49.26-22.1-49.26-49.26Zm252.71,124.85h1779.97v116.58H328.3v-116.58ZM75.59,1665.65v-587.5c0-27.07,22.05-49.11,49.16-49.11h165.26c.17,0,.31,.1,.49,.1s.31-.1,.49-.1h1854.59c.17,0,.31,.1,.49,.1s.31-.1,.49-.1h165.16c27.12,0,49.16,22.05,49.16,49.11v480.69c-168.6,2.38-328.66,58.52-459.71,155.97H124.75c-27.12,0-49.16-22.05-49.16-49.16Zm252.71,124.75H1813.49c-35.41,35.47-67.54,74.56-96.01,116.83H328.3v-116.83Zm-203.54,878.2c-27.12,0-49.16-22.29-49.16-49.66v-586.96c0-27.12,22.05-49.16,49.16-49.16H1672.4c-58.28,111.79-89.33,237.3-89.33,364.37,0,112.78,24.5,221.93,69.03,321.41H124.75Zm1533.91-321.41c0-95.6,19.99-189.91,56.74-277.17l280.26,882.76c-207.14-129.05-337-357.81-337-605.59Zm534.19,690.2l64.58-198.86c.02-.07,.01-.14,.03-.21,.05-.16,.16-.27,.21-.43l111.36-364.57,200.02,559.07c-122.02,34.99-253.36,36.57-376.2,5Zm608.46-120.67l200.41-639.26c1.82-5.2,28.32-82.32,41.83-171.04,27.49,76.63,41.88,157.93,41.88,240.77,0,225.67-106.82,435.81-284.12,569.53Z"/><path d="M3196.65,1783.27c-106.5-235.92-307.68-342.72-457.73-390.7-19.93-6.35-41.14,4.63-47.49,24.46-6.4,19.88,4.58,41.14,24.46,47.49,135.43,43.36,316.83,139.22,411.86,349.85,6.3,13.98,20.08,22.24,34.45,22.24,5.22,0,10.48-1.08,15.55-3.35,19.05-8.56,27.46-30.95,18.9-50Z"/><path d="M2561.07,1431.45c.98,.1,16.88,1.28,43.06,5.66,2.12,.39,4.23,.54,6.3,.54,18.11,0,34.1-13.04,37.2-31.5,3.49-20.62-10.38-40.11-31-43.55-31.55-5.31-50.39-6.55-50.39-6.55-20.82-1.82-38.78,14.32-40.21,35.14-1.38,20.82,14.27,38.83,35.04,40.26Z"/></g></g></g></svg>